# Blender 4.5.2 LTS
# www.blender.org
o rock_long_0
v -0.398752 -0.886474 0.852585
v -0.335056 -1.000000 0.594518
v -0.478617 -0.886479 0.819659
v 0.842464 -0.798528 0.490691
v -0.430292 3.547514 0.605018
v -0.645768 0.719713 0.686024
v -0.682538 3.143845 0.088804
v -0.496810 3.548039 0.446402
v -0.624393 3.935131 0.196655
v -0.822065 1.152028 0.175045
v -0.892638 0.336862 0.386802
v -0.685110 0.720023 0.592209
v -0.535935 4.150885 0.438131
v -0.607717 4.151452 0.266962
v -0.281837 2.053039 0.876307
v -0.334449 2.050866 0.855065
v 0.210367 4.715030 0.826466
v 0.269832 4.739289 0.800753
v 0.230905 4.783397 0.808451
v -0.555150 4.882141 -0.083810
v -0.525258 4.942568 -0.094705
v -0.528699 4.903682 -0.142099
v -0.555605 4.835755 0.312171
v -0.528537 4.851771 0.372391
v -0.531445 4.898651 0.326710
v 0.015242 5.176461 -0.307204
v -0.048615 5.176962 -0.281197
v 0.005368 5.194033 -0.245377
v -0.139937 5.019136 -0.480942
v -0.076717 5.016803 -0.507586
v -0.092154 4.959618 -0.537799
v -0.152967 4.961936 -0.512120
v 0.155138 4.938375 -0.540181
v 0.176236 4.996075 -0.510886
v 0.215810 4.950280 -0.513674
v -0.302411 5.164065 0.005253
v -0.240229 5.186400 0.002101
v -0.271376 5.170048 -0.056740
v -0.478280 4.951941 -0.185674
v -0.483349 4.988194 -0.133094
v -0.436087 5.009942 -0.182678
v 0.371201 5.128089 0.045473
v 0.431316 5.098528 0.048453
v 0.404204 5.109486 -0.015191
v 0.593049 4.943120 -0.093972
v 0.586196 4.911693 -0.147909
v 0.546188 4.971553 -0.140301
v 0.223459 4.956588 -0.506762
v 0.199366 5.016017 -0.484783
v 0.061862 5.189436 -0.248120
v 0.091652 5.169613 -0.310258
v -0.483146 4.952668 0.365072
v -0.475655 4.917539 0.417278
v -0.437709 4.978108 0.414276
v -0.213914 4.924335 0.672356
v -0.165329 4.960123 0.677763
v -0.212747 4.983125 0.632477
v -0.305495 5.133436 0.312268
v -0.271042 5.158955 0.259097
v -0.328237 5.135633 0.245643
v 0.137557 5.087447 0.565661
v 0.074060 5.066248 0.610579
v -0.182567 5.137597 0.375582
v -0.206014 5.110164 0.444217
v -0.202291 4.996363 0.623702
v -0.140121 4.989295 0.656434
v -0.092930 4.861544 0.754695
v -0.122940 4.804741 0.773703
v 0.003671 4.732645 0.828751
v 0.020143 4.796853 0.803871
v 0.210505 5.079782 0.576875
v 0.194279 5.051786 0.626856
v 0.264699 5.048973 0.609392
v 0.293606 4.783628 0.774025
v 0.274536 4.862142 0.756763
v 0.423248 4.891322 0.636559
v 0.374922 4.945194 0.650545
v 0.311982 4.976781 0.661296
v 0.272382 4.930112 0.712480
v 0.431322 5.071079 0.282655
v 0.371201 5.096700 0.313229
v 0.341050 5.081526 0.465057
v 0.378965 5.051575 0.512955
v 0.417909 5.032243 0.506476
v 0.459275 5.021516 0.451824
v 0.515126 4.957429 0.491760
v 0.473595 4.966790 0.545993
v 0.468643 4.900723 0.590187
v 0.473342 4.964650 0.548929
v 0.598498 4.835464 0.463275
v 0.541606 4.930391 0.482158
v 0.758626 4.723714 0.275806
v 0.786516 4.656627 0.284793
v 0.815533 4.428821 0.269824
v 0.843485 4.505914 0.201531
v 0.795896 4.695474 0.178249
v 0.825678 4.625694 0.171214
v 0.801824 4.559440 0.030590
v 0.826418 4.593689 0.090035
v 0.739707 4.732564 -0.013361
v 0.740629 4.770964 0.035360
v 0.794165 4.683186 0.067249
v -0.713133 -1.000000 -0.447818
v -0.766470 -0.973814 -0.439606
v -0.737342 -0.976718 -0.503548
v -0.511103 -0.769060 -0.955808
v -0.574183 -0.769462 -0.929005
v -0.578362 -0.707437 -0.952044
v -0.517250 -0.707248 -0.977293
v 0.740874 -0.974215 0.354250
v 0.706489 -1.000000 0.303208
v 0.767070 -0.974383 0.290792
v 0.354250 -0.974222 0.740886
v 0.290788 -0.974394 0.767081
v 0.303208 -1.000000 0.706489
v 0.252207 -1.000000 -0.706489
v 0.238875 -0.976746 -0.763706
v 0.303310 -0.973801 -0.740171
v 0.318907 -0.769029 -0.955842
v 0.328248 -0.707216 -0.977332
v 0.389185 -0.707275 -0.952056
v 0.382213 -0.769011 -0.929599
v 0.970136 -0.765303 -0.308274
v 0.940035 -0.768975 -0.370379
v 0.964268 -0.707181 -0.376406
v 0.989487 -0.707154 -0.315382
v 0.767073 -0.974386 -0.237742
v 0.706489 -1.000000 -0.251074
v 0.741104 -0.973799 -0.301282
v -0.536244 -0.768859 0.916209
v -0.546277 -0.707169 0.936550
v -0.254820 -1.000000 -0.706489
v -0.302282 -0.976864 -0.763596
v -0.595709 -1.000000 -0.565267
v -0.600840 -0.976857 -0.639921
v -0.536939 -0.878907 -0.827780
v -0.473853 -0.878509 -0.854571
v -0.956226 -0.769033 -0.125136
v -0.977810 -0.707241 -0.129301
v -0.935255 -0.477306 -0.560611
v -0.962927 -0.509568 -0.503353
v -0.789074 -0.707356 -0.742194
v -0.772647 -0.769471 -0.730407
v -0.818835 -0.741183 -0.686187
v -0.783058 -0.927409 -0.520191
v -0.827062 -0.908442 -0.461594
v -0.766460 -0.973804 0.178708
v -0.713399 -1.000000 0.217134
v -0.863299 -0.869247 0.421610
v -0.818750 -0.886522 0.480507
v -0.063868 -1.000000 0.706489
v -0.072404 -0.974401 0.767088
v -0.971121 -0.621038 0.468498
v -0.947178 -0.650440 0.527885
v -0.977705 -0.707228 0.384470
v -0.956155 -0.769024 0.381783
v -0.959094 -0.738195 0.445995
v -0.904740 -0.824519 0.438948
v -0.893485 -0.800707 0.509757
v -0.783828 -0.768869 0.669454
v -0.802407 -0.707185 0.681354
v -0.409183 -0.760792 0.950170
v -0.404889 -0.836112 0.901556
v -0.373400 -0.805537 0.931283
v -0.407429 -0.608425 0.987727
v -0.409511 -0.706808 0.971147
v -0.374258 -0.655324 0.989724
v -0.500200 -0.768844 0.931077
v -0.441101 -0.738265 0.960056
v -0.506573 -0.707155 0.952910
v 0.436821 -0.566054 0.961184
v 0.377144 -0.593709 0.983440
v 0.396556 -0.863933 0.848064
v 0.341436 -0.839120 0.888097
v 0.845911 -0.866049 0.395751
v 0.872103 -0.866218 0.332289
v 0.990896 -0.707061 0.186029
v 0.970243 -0.765160 0.224952
v 0.981878 -0.512778 0.374645
v 0.958790 -0.513829 0.435606
v 0.967243 -0.581149 0.405467
v 0.461577 -0.755063 0.894861
v 0.486154 -0.798511 0.847123
v 0.510319 -0.665549 0.893794
v 0.467304 -0.715743 0.910084
v 0.873521 -0.714882 0.504139
v 0.856133 -0.665556 0.547790
v -0.904689 0.222190 0.444397
v -0.882197 0.212166 0.505438
v -0.553411 4.527079 0.381826
v -0.579211 4.527310 0.321008
v -0.266926 2.276651 -0.721890
v -0.204727 2.275753 -0.745997
v 0.148411 2.267378 -0.746952
v 0.210264 2.265378 -0.722685
v 0.773321 1.966372 -0.263521
v 0.799657 1.994587 -0.205184
v 0.433240 1.228352 0.853760
v 0.372335 1.228750 0.880228
v 0.381700 2.884377 0.803162
v 0.320899 2.881728 0.829732
v 0.794427 1.359018 0.483421
v 0.819918 1.360604 0.422356
v 0.760843 2.484048 0.446630
v 0.786495 2.479598 0.385743
vn -0.8887 0.0028 0.4584
vn -0.8506 0.2000 0.4863
vn -0.9191 0.0811 0.3857
vn -0.9209 -0.0545 0.3860
vn 0.3438 0.1414 0.9284
vn -0.8839 0.3910 -0.2566
vn -0.9031 0.2696 0.3342
vn -0.1098 0.9513 -0.2879
vn -0.3184 0.5086 -0.8000
vn 0.3221 0.3323 -0.8865
vn -0.3406 0.9368 -0.0801
vn -0.7140 0.5423 -0.4427
vn 0.4424 0.8962 -0.0342
vn 0.7337 0.5424 -0.4092
vn -0.7514 0.4925 0.4392
vn -0.4544 0.5062 0.7330
vn -0.4059 0.8983 0.1682
vn 0.1629 0.8373 0.5219
vn 0.8542 0.4004 -0.3318
vn -0.4551 -0.8745 -0.1676
vn -0.3619 -0.3420 -0.8672
vn 0.4135 -0.8939 0.1731
vn 0.1730 -0.8940 0.4133
vn 0.1896 -0.8934 -0.4073
vn 0.3581 -0.3545 -0.8638
vn 0.8575 -0.3526 -0.3747
vn 0.4162 -0.8916 -0.1783
vn -0.7496 -0.3093 -0.5851
vn -0.9362 -0.3316 0.1163
vn -0.2431 -0.5358 0.8086
vn -0.2750 -0.1541 0.9490
vn -0.2627 -0.3459 0.9007
vn 0.9346 -0.0408 0.3533
vn -0.9157 0.4002 0.0368
vn -0.2087 0.8104 -0.5474
vn 0.0279 0.4528 -0.8912
vn -0.6284 0.4823 -0.6103
vn -0.5885 0.7781 -0.2196
vn -0.1962 0.9666 -0.1649
vn -0.8031 0.4700 -0.3663
vn 0.3115 0.9406 -0.1350
vn 0.6206 0.7713 -0.1412
vn 0.6436 0.4914 -0.5868
vn 0.0711 0.9610 -0.2672
vn 0.4449 0.4513 -0.7736
vn -0.6556 0.7151 0.2424
vn -0.6325 0.4370 0.6395
vn -0.8160 0.3975 0.4197
vn -0.3613 0.9303 0.0634
vn -0.0627 0.9339 0.3520
vn -0.2766 0.7000 0.6584
vn -0.1926 0.9301 0.3128
vn -0.1689 0.3928 0.9040
vn -0.3509 0.4208 0.8365
vn 0.0173 0.3034 0.9527
vn 0.0319 0.8761 0.4810
vn 0.5618 0.3050 0.7690
vn 0.4607 0.2835 0.8410
vn 0.1991 0.6494 0.7339
vn 0.2826 0.8928 0.3508
vn 0.4346 0.8945 0.1048
vn 0.7395 0.3259 0.5890
vn 0.6068 0.7239 0.3284
vn 0.6221 0.3878 0.6802
vn 0.8982 0.3816 0.2182
vn 0.8017 0.3920 0.4511
vn 0.8634 0.1917 -0.4666
vn 0.8863 0.4585 -0.0646
vn 0.8246 0.4367 -0.3595
vn 0.2776 -0.9197 0.2776
vn 0.6437 -0.7162 -0.2697
vn 0.2835 -0.9164 -0.2827
vn 0.2707 -0.7078 -0.6525
vn 0.6697 -0.3233 -0.6685
vn 0.3894 -0.9211 -0.0000
vn -0.0000 -0.3283 -0.9446
vn -0.3688 0.1099 -0.9230
vn 0.3739 0.0939 -0.9227
vn 0.9099 0.0372 -0.4132
vn -0.1187 -0.9507 -0.2865
vn 0.0001 -0.9266 -0.3760
vn -0.2748 -0.7016 -0.6574
vn -0.2691 -0.9248 -0.2687
vn -0.8505 -0.1330 -0.5089
vn -0.7473 -0.5164 -0.4182
vn -0.6597 -0.7020 -0.2684
vn -0.6737 -0.3011 -0.6749
vn -0.9181 0.0993 -0.3838
vn -0.5243 -0.8380 0.1515
vn -0.4417 -0.8972 -0.0001
vn -0.0000 -0.9211 0.3892
vn -0.9537 -0.1482 0.2617
vn -0.8064 -0.5293 0.2639
vn -0.6505 -0.6912 0.3147
vn -0.9441 -0.3295 0.0002
vn -0.6665 -0.3293 0.6688
vn -0.1261 -0.5430 0.8302
vn -0.1817 -0.1597 0.9703
vn -0.3577 -0.3443 0.8680
vn 0.2267 -0.7077 0.6692
vn 0.9671 -0.1613 0.1968
vn 0.6387 -0.7221 0.2656
vn 0.9454 -0.3259 -0.0013
vn 0.4720 -0.1972 0.8592
vn 0.8222 -0.1628 0.5453
vn 0.3663 -0.5434 0.7553
vn -0.9207 0.0813 0.3816
vn -0.9172 0.0815 0.3900
vn -0.3718 0.0876 -0.9242
vn 0.3770 0.0708 -0.9235
vn 0.9078 0.0814 -0.4114
vn 0.3938 0.0252 0.9188
vn 0.3985 0.0404 0.9163
vn 0.3634 0.0550 0.9300
vn 0.9262 0.0712 0.3703
vn 0.9218 0.0401 0.3856
vn 0.9217 0.0093 0.3877
vn 0.0348 0.0336 0.9988
vn -0.0175 0.5783 0.8156
vn 0.7081 0.0439 0.7048
vn -0.9970 0.0765 0.0117
vn -0.7331 0.6790 0.0386
vn -0.6645 0.1075 -0.7395
vn -0.7007 0.0744 0.7095
vn 0.0526 0.7676 -0.6388
vn -0.4472 0.7899 -0.4196
vn 0.0861 0.9895 0.1160
vn -0.0017 0.0773 -0.9970
vn 0.6812 0.0772 -0.7280
vn 0.4838 0.7936 -0.3690
vn 0.7263 0.6827 0.0799
vn -0.4809 0.7321 0.4824
vn -0.1844 0.8283 0.5290
vn -0.3758 0.0563 0.9250
vn 0.4448 0.7019 0.5563
vn 0.3878 0.5118 0.7666
vn 0.4612 0.8692 0.1785
vn 0.7121 0.5366 0.4527
vn 0.9168 0.1400 0.3739
vn 0.9991 0.0423 0.0099
vn 0.9435 0.3110 -0.1140
vn -0.0000 -1.0000 -0.0000
vn -0.5272 -0.6667 -0.5269
vn -0.7335 -0.6797 0.0001
vn -0.0003 0.0773 -0.9970
vn -0.0000 -0.6790 -0.7341
vn 0.5106 -0.6918 0.5105
vn 0.7174 -0.6967 -0.0000
vn 0.0068 -0.6832 0.7302
vn 0.5195 -0.6794 -0.5182
vn -0.2769 -0.6871 0.6718
vn -0.5230 -0.6767 0.5182
vn -0.2101 -0.8358 -0.5073
vn -0.9117 -0.3354 -0.2374
vn -0.2817 -0.9170 0.2825
vn -0.1513 -0.9180 0.3665
vn -0.8023 -0.3454 0.4869
vn -0.7440 -0.3356 0.5778
vn 0.0332 -0.3618 0.9317
vn 0.0384 -0.3649 0.9303
vn 0.2160 -0.3806 0.8992
vn 0.8532 -0.3802 0.3570
vn 0.6619 -0.3523 0.6616
vn -0.8850 0.2799 0.3721
vn -0.9217 0.0147 0.3877
vt 0.723644 0.312984
vt 0.676112 0.236233
vt 0.719318 0.181054
vt 0.697805 0.631353
vt 0.670711 0.754627
vt 0.636138 0.687502
vt 0.622936 0.684515
vt 0.653791 0.231182
vt 0.689857 0.137971
vt 0.713944 0.143422
vt 0.480664 0.052082
vt 0.472423 0.046982
vt 0.477011 0.040766
vt 0.823925 0.190056
vt 0.828319 0.183917
vt 0.833095 0.190394
vt 0.714877 0.031214
vt 0.706478 0.026687
vt 0.712076 0.020789
vt 0.895246 0.117315
vt 0.887702 0.123696
vt 0.887461 0.112471
vt 0.902591 0.161076
vt 0.910136 0.154928
vt 0.911717 0.162473
vt 0.904455 0.168379
vt 0.027353 0.045523
vt 0.031437 0.035240
vt 0.035671 0.043108
vt 0.835578 0.134111
vt 0.840655 0.124853
vt 0.845250 0.134927
vt 0.842621 0.184891
vt 0.836588 0.179252
vt 0.846169 0.176020
vt 0.877033 0.041387
vt 0.880365 0.034486
vt 0.886272 0.043056
vt 0.113897 0.033676
vt 0.108352 0.040466
vt 0.104344 0.030130
vt 0.704446 0.011247
vt 0.697933 0.015051
vt 0.695558 0.005888
vt 0.647462 0.007998
vt 0.642851 0.002697
vt 0.652271 0.000000
vt 0.798142 0.109754
vt 0.807323 0.108372
vt 0.804562 0.118428
vt 0.801505 0.019999
vt 0.793931 0.019313
vt 0.800872 0.011429
vt 0.139224 0.066783
vt 0.143573 0.058969
vt 0.153226 0.072778
vt 0.916152 0.613458
vt 0.916523 0.603878
vt 0.924568 0.609461
vt 0.993883 0.646494
vt 0.990422 0.635778
vt 0.996751 0.633758
vt 1.000000 0.644137
vt 0.814636 0.844742
vt 0.819783 0.840258
vt 0.822769 0.849765
vt 0.765034 0.776599
vt 0.761664 0.765820
vt 0.768045 0.769180
vt 0.949332 0.775979
vt 0.957937 0.773799
vt 0.955077 0.784132
vt 0.087287 1.000000
vt 0.085133 0.990523
vt 0.093533 0.990119
vt 0.096011 0.999568
vt 0.214451 0.983421
vt 0.205432 0.985748
vt 0.206253 0.975889
vt 0.214746 0.974167
vt 0.890580 0.855465
vt 0.890898 0.846236
vt 0.898764 0.851839
vt 0.969833 0.596627
vt 0.964943 0.600797
vt 0.960808 0.591958
vt 0.663094 0.923172
vt 0.660376 0.933643
vt 0.654649 0.926106
vt 0.551249 0.918508
vt 0.554596 0.932695
vt 0.549075 0.927046
vt 0.549619 0.892315
vt 0.549988 0.908917
vt 0.545553 0.900357
vt 0.561693 0.919195
vt 0.553626 0.913988
vt 0.561037 0.908229
vt 0.350663 0.892905
vt 0.359048 0.892239
vt 0.355050 0.903722
vt 0.775770 0.158509
vt 0.776765 0.150842
vt 0.003365 0.040491
vt 0.007001 0.030231
vt 0.891643 0.105297
vt 0.900813 0.107589
vt 0.110072 0.002750
vt 0.100971 0.002730
vt 0.037002 0.041902
vt 0.035965 0.031291
vt 0.776443 0.138315
vt 0.774146 0.126679
vt 0.797899 0.030439
vt 0.799194 0.087498
vt 0.788896 0.086162
vt 0.787756 0.036238
vt 0.765790 0.075985
vt 0.763792 0.077310
vt 0.761291 0.068171
vt 0.766083 0.065128
vt 0.610034 0.027135
vt 0.626715 0.016830
vt 0.626780 0.024881
vt 0.608108 0.036365
vt 0.496715 0.045031
vt 0.500683 0.055374
vt 0.467529 0.039707
vt 0.441417 0.021697
vt 0.447561 0.014013
vt 0.467759 0.027909
vt 0.796747 0.004208
vt 0.787091 0.007517
vt 0.823987 0.011842
vt 0.820396 0.004113
vt 0.851902 0.015791
vt 0.844493 0.020015
vt 0.432396 0.019963
vt 0.406988 0.029890
vt 0.414529 0.015645
vt 0.427891 0.010433
vt 0.429020 0.002144
vt 0.427574 0.010150
vt 0.418087 0.011790
vt 0.419504 0.004023
vt 0.358943 0.053950
vt 0.372453 0.048012
vt 0.370565 0.057889
vt 0.355244 0.064612
vt 0.152179 0.094343
vt 0.159944 0.087024
vt 0.164225 0.067368
vt 0.167450 0.079261
vt 0.910996 0.884511
vt 0.918765 0.880293
vt 0.993882 0.783833
vt 0.990515 0.794024
vt 1.000000 0.784038
vt 0.011957 0.488598
vt 0.003399 0.985542
vt 0.000000 0.984441
vt 0.008323 0.487346
vt 0.054544 0.492042
vt 0.046126 0.492090
vt 0.159015 0.530607
vt 0.166928 0.524327
vt 0.949336 0.692083
vt 0.931220 0.634154
vt 0.942056 0.633522
vt 0.957921 0.684257
vt 0.971484 0.643631
vt 0.974943 0.654348
vt 0.959045 0.564632
vt 0.949945 0.560256
vt 0.929385 0.600823
vt 0.922899 0.592427
vt 0.764791 0.551094
vt 0.755480 0.551547
vt 0.811714 0.575910
vt 0.837193 0.597211
vt 0.830838 0.606243
vt 0.803218 0.583085
vt 0.761666 0.705724
vt 0.768048 0.708441
vt 0.655308 0.906012
vt 0.646597 0.908854
vt 0.648883 0.941223
vt 0.641036 0.934783
vt 0.646015 0.949783
vt 0.635582 0.950980
vt 0.711510 0.953234
vt 0.714922 0.943028
vt 0.566456 0.908270
vt 0.616509 0.914309
vt 0.615005 0.925074
vt 0.566614 0.919234
vt 0.446853 0.977850
vt 0.453898 0.955893
vt 0.463274 0.952498
vt 0.455573 0.979130
vt 0.330287 0.929066
vt 0.336091 0.938185
vt 0.361764 0.976770
vt 0.356151 0.954923
vt 0.365089 0.954088
vt 0.370702 0.975935
vt 0.279580 0.941734
vt 0.282034 0.951622
vt 0.470021 0.908998
vt 0.453722 0.928033
vt 0.448061 0.918961
vt 0.462116 0.903250
vt 0.373744 0.925874
vt 0.379930 0.917255
vt 0.445371 0.942549
vt 0.452648 0.935001
vt 0.664297 0.770862
vt 0.655852 0.770468
vt 0.711521 0.080660
vt 0.702934 0.078733
vt 0.000000 0.038965
vt 0.466764 0.347694
vt 0.458265 0.346101
vt 0.463661 0.614485
vt 0.455157 0.613383
vt 0.374726 0.591022
vt 0.383351 0.590512
vt 0.376447 0.410435
vt 0.385081 0.408950
vt 0.356377 0.082850
vt 0.365819 0.094548
vt 0.527427 0.499829
vt 0.545401 0.934906
vt 0.542340 0.941506
vt 0.780808 0.006840
vt 0.755480 0.056733
vt 0.756384 0.040474
vt 0.770275 0.012259
vt 0.755480 0.038984
vt 0.754251 0.925573
vt 0.876665 0.336434
vt 0.832573 0.547923
vt 0.792823 0.558427
vt 0.596640 0.466242
vt 0.926604 0.115683
vt 0.927782 0.122048
vt 0.040575 0.000000
vt 0.133724 0.000111
vt 0.153956 0.003272
vt 0.164277 0.012944
vt 0.166288 0.017851
vt 0.169881 0.059510
vt 0.589537 0.465854
vt 0.433437 0.000000
vt 0.454129 0.001439
vt 0.454729 0.010485
vt 0.463610 0.018001
vt 0.823557 0.000372
vt 0.832790 0.000000
vt 0.173971 0.098183
vt 0.217044 0.426228
vt 0.240643 0.609758
vt 0.279580 0.920978
vt 0.264640 0.958825
vt 0.782417 0.664776
vt 0.811922 0.567729
vt 0.822274 0.558427
vt 0.887312 0.563882
vt 0.375181 0.940791
vt 0.308172 0.990063
vt 0.536032 0.967451
vt 0.535965 0.974133
vt 0.530313 0.983394
vt 0.490281 0.990063
vt 0.569087 0.942946
vt 0.558184 0.942866
vt 0.755480 0.972442
vt 0.731057 0.990828
vt 0.759704 0.635707
vt 0.755480 0.648567
vt 0.541456 0.960755
vt 0.543722 0.951432
vt 0.545553 0.957793
s 0
f 7/1/1 8/2/1 9/3/1
f 10/4/2 11/5/2 12/6/2
f 8/2/3 7/1/3 10/4/3 12/6/3 6/7/3 5/8/3
f 9/3/4 8/2/4 5/8/4 13/9/4 14/10/4
f 17/11/5 18/12/5 19/13/5
f 20/14/6 21/15/6 22/16/6
f 23/17/7 24/18/7 25/19/7
f 26/20/8 27/21/8 28/22/8
f 29/23/9 30/24/9 31/25/9 32/26/9
f 33/27/10 34/28/10 35/29/10
f 36/30/11 37/31/11 38/32/11
f 39/33/12 40/34/12 41/35/12
f 42/36/13 43/37/13 44/38/13
f 45/39/14 46/40/14 47/41/14
f 52/42/15 53/43/15 54/44/15
f 55/45/16 56/46/16 57/47/16
f 58/48/17 59/49/17 60/50/17
f 71/51/18 72/52/18 73/53/18
f 100/54/19 101/55/19 102/56/19
f 103/57/20 104/58/20 105/59/20
f 106/60/21 107/61/21 108/62/21 109/63/21
f 110/64/22 111/65/22 112/66/22
f 113/67/23 114/68/23 115/69/23
f 116/70/24 117/71/24 118/72/24
f 119/73/25 120/74/25 121/75/25 122/76/25
f 123/77/26 124/78/26 125/79/26 126/80/26
f 127/81/27 128/82/27 129/83/27
f 142/84/28 143/85/28 144/86/28
f 155/87/29 156/88/29 157/89/29
f 162/90/30 163/91/30 164/92/30
f 165/93/31 166/94/31 167/95/31
f 168/96/32 169/97/32 170/98/32
f 179/99/33 180/100/33 181/101/33
f 20/14/34 23/102/34 25/103/34 21/15/34
f 29/23/35 27/21/35 26/20/35 30/24/35
f 33/27/36 31/104/36 30/105/36 34/28/36
f 32/26/37 39/33/37 41/35/37 29/23/37
f 40/34/38 36/30/38 38/32/38 41/35/38
f 37/31/39 28/22/39 27/21/39 38/32/39
f 21/15/40 40/34/40 39/33/40 22/16/40
f 50/106/41 42/36/41 44/38/41 51/107/41
f 43/108/42 45/39/42 47/41/42 44/109/42
f 46/40/43 48/110/43 49/111/43 47/41/43
f 51/107/44 26/20/44 28/22/44 50/106/44
f 48/110/45 35/29/45 34/28/45 49/111/45
f 60/50/46 52/112/46 54/113/46 58/48/46
f 53/43/47 55/45/47 57/47/47 54/44/47
f 24/18/48 53/43/48 52/42/48 25/19/48
f 59/49/49 37/31/49 36/30/49 60/50/49
f 61/114/50 63/115/50 64/116/50 62/117/50
f 65/118/51 57/119/51 56/120/51 66/121/51
f 63/115/52 59/49/52 58/48/52 64/116/52
f 70/122/53 67/123/53 68/124/53 69/125/53
f 67/123/54 56/46/54 55/45/54 68/124/54
f 19/13/55 70/126/55 69/127/55 17/11/55
f 62/117/56 72/52/56 71/51/56 61/114/56
f 74/128/57 76/129/57 77/130/57 75/131/57
f 18/12/58 74/128/58 75/131/58 19/13/58
f 78/132/59 73/53/59 72/52/59 79/133/59
f 82/134/60 71/51/60 73/53/60 83/135/60
f 80/136/61 43/37/61 42/36/61 81/137/61
f 88/138/62 90/139/62 91/140/62 89/141/62
f 84/142/63 87/143/63 86/144/63 85/145/63
f 89/141/64 77/130/64 76/129/64 88/138/64
f 96/146/65 92/147/65 93/148/65 97/149/65
f 90/139/66 93/148/66 92/147/66 91/140/66
f 98/150/67 100/54/67 102/56/67 99/151/67
f 101/55/68 96/152/68 97/153/68 102/56/68
f 45/39/69 101/55/69 100/54/69 46/40/69
f 115/69/70 111/65/70 110/64/70 113/67/70
f 123/154/71 127/81/71 129/83/71 124/155/71
f 128/82/72 116/70/72 118/72/72 129/83/72
f 117/71/73 119/156/73 122/157/73 118/72/73
f 121/75/74 125/79/74 124/78/74 122/76/74
f 111/65/75 128/82/75 127/81/75 112/66/75
f 109/63/76 120/158/76 119/156/76 106/60/76
f 193/159/77 109/160/77 108/161/77 192/162/77
f 195/163/78 121/75/78 120/74/78 194/164/78
f 196/165/79 98/150/79 99/151/79 197/166/79
f 132/167/80 134/168/80 135/169/80 133/170/80
f 116/70/81 132/167/81 133/170/81 117/71/81
f 136/171/82 107/61/82 106/60/82 137/172/82
f 134/168/83 103/57/83 105/59/83 135/169/83
f 140/173/84 142/84/84 144/86/84 141/174/84
f 143/85/85 145/175/85 146/176/85 144/86/85
f 104/58/86 146/176/86 145/175/86 105/59/86
f 142/84/87 108/62/87 107/61/87 143/85/87
f 22/16/88 140/177/88 141/178/88 20/14/88
f 149/179/89 147/180/89 148/181/89 150/182/89
f 103/57/90 148/181/90 147/180/90 104/58/90
f 114/68/91 152/183/91 151/184/91 115/69/91
f 153/185/92 155/87/92 157/89/92 154/186/92
f 156/88/93 158/187/93 159/188/93 157/89/93
f 158/187/94 149/189/94 150/190/94 159/188/94
f 138/191/95 156/88/95 155/87/95 139/192/95
f 131/193/96 161/194/96 160/195/96 130/196/96
f 168/96/97 163/91/97 162/90/97 169/97/97
f 165/93/98 170/98/98 169/97/98 166/94/98
f 170/98/99 131/193/99 130/196/99 168/96/99
f 113/197/100 173/198/100 174/199/100 114/200/100
f 177/201/101 179/99/101 181/101/101 178/202/101
f 112/203/102 176/204/102 175/205/102 110/206/102
f 126/207/103 177/201/103 178/202/103 123/208/103
f 172/209/104 185/210/104 184/211/104 171/212/104
f 186/213/105 181/101/105 180/100/105 187/214/105
f 173/198/106 183/215/106 182/216/106 174/199/106
f 188/217/107 153/185/107 154/186/107 189/218/107
f 23/17/108 191/219/108 190/220/108 24/18/108
f 31/104/109 193/159/109 192/162/109 32/221/109
f 35/29/110 195/163/110 194/164/110 33/27/110
f 125/79/111 196/165/111 197/166/111 126/80/111
f 17/11/112 201/222/112 200/223/112 18/12/112
f 201/222/113 199/224/113 198/225/113 200/223/113
f 199/224/114 172/209/114 171/212/114 198/225/114
f 179/99/115 203/226/115 202/227/115 180/100/115
f 203/226/116 205/228/116 204/229/116 202/227/116
f 205/228/117 95/230/117 94/231/117 204/229/117
f 172/209/118 199/224/118 201/222/118 17/11/118 69/127/118 15/232/118 165/233/118 167/234/118
f 75/235/119 79/133/119 72/52/119 62/117/119 66/121/119 56/120/119 67/236/119 70/237/119 19/238/119
f 90/139/120 88/138/120 76/129/120 74/128/120 18/12/120 200/223/120 198/225/120 171/212/120 184/211/120 187/214/120 180/100/120 202/227/120 204/229/120 94/231/120 93/148/120
f 155/87/121 153/185/121 188/217/121 11/5/121 10/4/121 7/1/121 9/3/121 14/10/121 191/219/121 23/17/121 20/239/121 141/240/121 139/192/121
f 52/112/122 60/50/122 36/30/122 40/34/122 21/15/122 25/103/122
f 32/26/123 192/241/123 108/242/123 142/243/123 140/177/123 22/16/123 39/33/123
f 131/193/124 16/244/124 68/124/124 55/45/124 53/43/124 24/18/124 190/220/124 13/9/124 5/8/124 6/7/124 189/218/124 154/186/124 161/194/124
f 26/20/125 51/107/125 49/245/125 34/246/125 30/24/125
f 29/23/126 41/35/126 38/32/126 27/21/126
f 42/36/127 50/106/127 28/22/127 37/31/127 59/49/127 63/115/127 61/114/127 71/51/127 82/134/127 81/137/127
f 193/159/128 31/104/128 33/27/128 194/164/128
f 48/110/129 46/40/129 100/54/129 98/150/129 196/165/129 125/79/129 121/75/129 195/163/129 35/29/129
f 44/109/130 47/41/130 49/111/130 51/247/130
f 45/39/131 43/108/131 80/248/131 85/249/131 86/250/131 91/251/131 92/252/131 96/152/131 101/55/131
f 54/113/132 57/119/132 65/118/132 64/116/132 58/48/132
f 62/117/133 64/116/133 65/118/133 66/121/133
f 68/124/134 16/244/134 131/193/134 170/98/134 165/93/134 15/253/134 69/125/134
f 84/142/135 83/254/135 73/255/135 78/256/135 77/130/135 89/141/135 87/143/135
f 75/131/136 77/130/136 78/256/136 79/257/136
f 80/136/137 81/137/137 82/134/137 83/135/137 84/258/137 85/259/137
f 86/144/138 87/143/138 89/141/138 91/140/138
f 93/148/139 94/231/139 95/230/139 97/149/139
f 126/80/140 197/166/140 99/151/140 97/153/140 95/260/140 205/261/140 203/262/140 179/263/140 177/264/140
f 99/151/141 102/56/141 97/153/141
f 103/57/142 134/168/142 132/167/142 116/70/142 128/82/142 111/65/142 115/69/142 151/184/142 2/265/142 148/181/142
f 136/171/143 135/169/143 105/59/143 145/175/143 143/85/143 107/61/143
f 104/58/144 147/180/144 149/179/144 158/266/144 156/267/144 138/268/144 146/176/144
f 109/160/145 193/159/145 194/164/145 120/74/145
f 117/71/146 133/170/146 137/172/146 106/60/146 119/156/146
f 113/197/147 110/206/147 175/205/147 4/269/147 183/215/147 173/198/147
f 112/203/148 127/270/148 123/208/148 178/202/148 176/204/148
f 174/199/149 164/271/149 163/272/149 1/273/149 152/274/149 114/200/149
f 129/83/150 118/72/150 122/157/150 124/155/150
f 3/275/151 1/276/151 163/91/151 168/96/151 130/196/151
f 150/190/152 3/275/152 130/196/152 160/195/152 159/188/152
f 133/170/153 135/169/153 136/171/153 137/172/153
f 138/191/154 139/192/154 141/240/154 144/277/154 146/278/154
f 148/181/155 2/265/155 3/279/155 150/182/155
f 2/265/156 151/184/156 152/183/156 1/280/156 3/279/156
f 159/188/157 154/186/157 157/89/157
f 160/195/158 161/194/158 154/186/158 159/188/158
f 162/281/159 166/282/159 169/283/159
f 162/281/160 164/271/160 174/199/160 172/209/160 167/234/160 166/282/160
f 172/209/161 174/199/161 182/216/161 185/210/161
f 175/205/162 176/204/162 178/202/162 181/101/162 186/213/162 4/269/162
f 186/213/163 187/214/163 184/211/163 185/210/163 182/216/163 183/215/163 4/269/163
f 6/7/164 12/6/164 11/5/164 188/217/164 189/218/164
f 13/9/165 190/220/165 191/219/165 14/10/165
