# Blender 4.5.2 LTS
# www.blender.org
o rock_round_2
v -4.361510 0.735065 -8.512930
v -4.207289 0.354412 -9.435404
v -3.183324 0.436030 -9.844810
v -3.334297 0.733476 -8.024885
v -4.127691 0.250241 -8.376700
v -4.124679 0.219970 -8.406233
v -4.091396 0.219970 -8.372950
v -4.116968 1.531870 -9.397878
v -4.147764 1.510627 -9.374887
v -4.127816 1.544428 -9.352895
v -2.658383 0.079701 -9.048649
v -2.627011 0.099617 -9.068904
v -2.628346 0.099773 -9.025950
v -3.060917 0.118335 -8.310431
v -3.034633 0.148474 -8.288846
v -3.073872 0.143277 -8.274531
v -2.404157 0.494095 -9.037258
v -2.414871 0.443401 -9.026239
v -2.415180 0.439452 -9.068806
v -2.418808 0.874970 -8.600868
v -2.410109 0.902607 -8.625511
v -2.419219 0.914079 -8.588533
v -3.048082 0.495720 -8.064621
v -3.051077 0.449053 -8.081965
v -3.024839 0.479749 -8.092969
v -3.855817 0.494374 -8.070402
v -3.897106 0.480100 -8.091532
v -3.859895 0.454845 -8.088568
v -3.895596 -0.071014 -9.446551
v -3.872389 -0.058626 -9.484257
v -3.849366 -0.077924 -9.456534
v -3.889803 -0.064412 -8.637733
v -3.849366 -0.077924 -8.640763
v -3.864549 -0.061448 -8.600523
v -3.830133 1.671367 -9.459105
v -3.833997 1.646964 -9.489692
v -3.406295 1.675854 -9.681671
v -3.394623 1.695104 -9.644858
v -3.366603 1.677018 -9.684187
v -3.069574 1.348316 -9.826064
v -3.066247 1.385846 -9.812165
v -3.027634 1.336839 -9.802603
v -3.318946 1.470742 -9.860816
v -3.283733 1.483136 -9.853306
v -3.288781 1.446173 -9.867768
v -2.593131 1.290259 -9.297904
v -2.608766 1.274458 -9.341088
v -2.617967 1.321478 -9.323548
v -2.712421 1.635939 -8.940289
v -2.681127 1.610630 -8.941010
v -2.699943 1.616329 -8.993499
v -2.851662 1.627582 -8.595094
v -2.806066 1.603617 -8.584908
v -2.626101 1.458998 -8.665687
v -2.656048 1.488180 -8.633068
v -2.714296 1.630075 -8.819351
v -2.698878 1.605661 -8.760061
v -2.679353 1.604731 -8.823024
v -3.613132 1.228523 -8.178385
v -3.595810 1.280876 -8.184845
v -3.263605 1.276553 -8.124609
v -3.224426 1.299001 -8.139449
v -3.267477 1.317993 -8.148990
v -3.068926 1.618740 -8.439270
v -3.089464 1.637544 -8.468900
v -3.119456 1.621187 -8.434626
v -3.597874 1.661725 -8.681810
v -3.578307 1.650588 -8.621367
v -3.856786 1.441096 -8.254809
v -3.820281 1.464028 -8.273558
v -3.864606 1.468670 -8.285567
v -4.057793 1.344522 -8.265038
v -4.064926 1.375589 -8.295122
v -4.099219 1.336838 -8.279468
v -4.233603 1.182240 -8.327961
v -4.259915 1.134009 -8.345766
v -4.139370 1.169686 -8.242842
v -4.167985 1.190033 -8.261125
v -4.175823 1.143863 -8.260054
v -4.419886 1.171523 -8.647416
v -4.415709 1.153514 -8.602107
v -4.406730 1.202159 -8.618641
v -4.342211 1.375413 -8.783110
v -4.366015 1.339213 -8.790300
v -4.363129 1.342111 -8.736446
v -4.422573 0.772872 -8.648262
v -4.415710 0.759274 -8.602110
v -4.356985 0.378109 -8.905812
v -4.341697 0.341579 -8.885968
v -4.357876 0.383141 -8.844758
v -4.219940 0.298088 -8.483625
v -4.242947 0.343277 -8.470579
v -2.859774 0.126867 -9.495076
v -2.898851 0.099361 -9.490132
v -2.897722 0.125836 -9.528833
v -3.334452 0.070878 -9.687823
v -3.364972 0.040904 -9.659462
v -3.385772 0.065597 -9.686977
v -2.859687 0.224030 -9.570763
v -2.816234 0.241237 -9.542398
v -4.143015 0.332300 -9.551970
v -4.175316 0.333390 -9.519216
v -4.004733 0.021895 -9.474048
v -4.012918 0.007017 -9.438074
v -4.056858 0.053046 -9.451657
v -4.251902 0.204694 -9.225333
v -4.264269 0.228016 -9.263305
v -3.268468 0.405925 -9.843777
v -3.238873 0.456130 -9.855365
v -3.226792 0.394930 -9.837013
v -3.270038 0.416164 -9.846807
v -3.072736 0.655981 -9.824580
v -3.031472 0.656080 -9.800504
v -2.944741 0.387682 -9.695735
v -2.979738 0.361001 -9.710793
v -4.044344 1.109766 -9.706287
v -4.009726 1.119393 -9.736934
v -4.062936 0.763595 -9.722480
v -4.029172 0.767614 -9.755593
v -3.559374 0.940629 -9.917366
v -3.614252 0.926848 -9.912374
v -3.422161 1.317260 -9.892577
v -3.472262 1.320805 -9.888540
v -3.003353 0.520840 -8.078404
v -3.045396 0.545735 -8.056262
v -2.733448 0.870622 -8.271061
v -2.762094 0.911704 -8.251793
v -3.156961 1.180359 -8.106723
v -3.198133 1.169402 -8.090450
vn -0.5629 -0.6052 0.5629
vn -0.6935 0.6331 -0.3440
vn 0.5450 -0.8382 0.0200
vn 0.3200 -0.7200 0.6157
vn 0.9788 -0.2043 0.0118
vn 0.9631 -0.0717 0.2595
vn 0.6468 -0.3018 0.7004
vn -0.3195 -0.3683 0.8731
vn -0.2230 -0.8771 -0.4254
vn -0.2872 -0.9196 0.2682
vn -0.0546 0.8918 -0.4490
vn 0.5242 0.2545 -0.8127
vn 0.0740 0.3546 -0.9321
vn 0.8455 0.3238 -0.4246
vn 0.6208 0.7716 -0.1388
vn 0.5902 0.7889 0.1714
vn 0.0340 0.5092 0.8600
vn 0.0871 0.8673 0.4901
vn -0.1078 0.7265 0.6787
vn -0.3596 0.6052 0.7102
vn -0.4830 0.1021 0.8696
vn -0.9539 0.2381 0.1826
vn -0.8368 0.5472 0.0154
vn -0.9257 -0.3778 0.0176
vn 0.4584 -0.7397 -0.4927
vn 0.0626 -0.7188 -0.6924
vn -0.5916 -0.6885 -0.4194
vn 0.4829 -0.8178 0.3131
vn 0.9714 -0.1617 0.1737
vn 0.8485 -0.5280 0.0355
vn -0.0081 -0.3803 0.9248
vn -0.4382 -0.4888 0.7544
vn 0.5285 -0.4615 0.7125
vn -0.2287 -0.9735 0.0048
vn 0.0211 -0.8749 0.4838
vn -0.4891 -0.7544 0.4378
vn -0.4677 0.7762 -0.4228
vn -0.0649 0.6404 -0.7653
vn 0.3084 0.3080 -0.9000
vn 0.3223 0.9176 -0.2327
vn 0.8375 0.4935 -0.2347
vn 0.7032 0.3990 -0.5885
vn -0.2617 0.8365 -0.4814
vn 0.9116 0.0822 -0.4027
vn 0.4036 0.8781 0.2571
vn 0.7992 0.5510 0.2401
vn 0.6086 0.7925 0.0393
vn 0.8845 0.3751 0.2773
vn -0.0408 0.3433 0.9383
vn -0.1643 0.3293 0.9298
vn 0.1100 0.6517 0.7505
vn -0.0593 0.9604 0.2723
vn -0.1719 0.9201 0.3519
vn 0.2832 0.8505 0.4432
vn -0.3637 0.2819 0.8878
vn -0.7149 0.1370 0.6857
vn -0.5830 0.7389 0.3379
vn -0.9404 0.3368 0.0459
vn -0.8111 0.2888 0.5086
vn -0.8130 0.5657 -0.1379
vn -0.3348 0.6360 0.6953
vn -0.4564 0.0347 0.8891
vn -0.9822 -0.1833 0.0401
vn -0.8392 -0.5051 0.2016
vn -0.7536 -0.5004 0.4263
vn -0.9927 0.0032 0.1209
vn 0.5946 -0.4944 -0.6340
vn 0.2930 -0.7951 -0.5310
vn 0.4585 -0.8381 -0.2954
vn -0.0495 -0.8001 -0.5979
vn -0.6031 -0.4279 -0.6732
vn -0.7098 -0.6882 -0.1505
vn -0.4958 -0.7242 -0.4793
vn -0.8893 -0.4550 -0.0456
vn 0.0149 -0.4205 -0.9072
vn 0.5805 -0.2817 -0.7640
vn 0.4956 -0.0048 -0.8685
vn -0.6879 0.0735 -0.7221
vn -0.0947 0.0968 -0.9908
vn -0.6948 -0.1491 -0.7035
vn -0.6871 0.3478 -0.6378
vn -0.0506 0.2349 -0.9707
vn -0.0641 -0.1702 -0.9833
vn 0.5352 0.0439 0.8436
vn 0.4413 -0.3273 0.8355
vn 0.1919 0.3809 0.9045
vn 0.7119 -0.0187 0.7020
vn -0.7030 -0.1282 0.6996
vn -0.0904 -0.6556 0.7497
vn -0.6601 -0.7469 0.0796
vn -0.4036 0.5034 -0.7640
vn -0.3730 0.9147 0.1552
vn -0.9516 0.0441 -0.3041
vn -0.9265 0.0671 -0.3703
vn 0.7531 -0.4098 0.5147
vn 0.7599 -0.4735 -0.4453
vn 0.1596 -0.9871 0.0091
vn 0.9584 0.2691 -0.0955
vn 0.7551 -0.0202 -0.6553
vn 0.5603 0.3930 0.7291
vn -0.0063 -0.1722 0.9850
vn -0.1402 0.1891 0.9719
vn -0.1758 0.1999 0.9639
vn -0.2678 -0.3283 -0.9058
vn 0.0215 0.9991 0.0360
vn 0.4205 0.6918 -0.5870
vn 0.5500 0.7067 -0.4451
vn 0.1856 -0.0030 -0.9826
vn 0.6364 0.6613 0.3971
vn -0.0571 0.7528 0.6558
vn -0.6781 0.3951 0.6197
vn -0.7196 0.5381 0.4388
vn -0.8546 -0.0000 0.5194
vn -0.9122 -0.2861 0.2934
vn 0.3498 -0.4898 -0.7986
vn -0.8128 -0.3820 -0.4398
vn 0.0842 -0.2709 -0.9589
vn 0.4968 -0.1715 -0.8507
vn -0.3492 0.1285 -0.9282
vn 0.3309 0.1280 0.9350
vt 0.763939 0.299855
vt 0.757737 0.306594
vt 0.756382 0.292578
vt 0.020671 0.268415
vt 0.024518 0.280229
vt 0.017199 0.280322
vt 0.791536 0.522001
vt 0.786333 0.512658
vt 0.795301 0.511351
vt 0.955502 0.609815
vt 0.959058 0.599863
vt 0.963121 0.611098
vt 0.448300 0.404454
vt 0.438286 0.407183
vt 0.436272 0.395905
vt 0.539795 0.509102
vt 0.544680 0.503045
vt 0.548255 0.511351
vt 0.559636 0.861634
vt 0.553047 0.872660
vt 0.551617 0.860251
vt 0.803170 0.167998
vt 0.801787 0.181811
vt 0.795239 0.174290
vt 0.742897 0.909135
vt 0.734340 0.903225
vt 0.739643 0.896213
vt 0.910921 0.875247
vt 0.909319 0.864054
vt 0.917965 0.866203
vt 0.010876 0.592074
vt 0.013984 0.601607
vt 0.004376 0.599544
vt 0.614321 0.081489
vt 0.622435 0.084708
vt 0.611896 0.093794
vt 0.046528 0.006980
vt 0.044031 0.001313
vt 0.051976 0.000000
vt 0.609138 0.289123
vt 0.604909 0.275869
vt 0.615304 0.278096
vt 0.009148 0.895982
vt 0.004600 0.903291
vt 0.000000 0.887810
vt 0.026617 0.922141
vt 0.032987 0.939226
vt 0.021090 0.929551
vt 0.673816 0.693434
vt 0.669180 0.680899
vt 0.676667 0.681942
vt 0.135245 0.933154
vt 0.133942 0.921720
vt 0.143664 0.923786
vt 0.285631 0.820848
vt 0.276998 0.823193
vt 0.282073 0.811371
vt 0.987155 0.215875
vt 0.993996 0.222327
vt 0.987102 0.228054
vt 0.953746 0.236079
vt 0.959061 0.245137
vt 0.949783 0.248530
vt 0.966227 0.379814
vt 0.962106 0.370295
vt 0.971941 0.369755
vt 0.041306 0.454592
vt 0.048846 0.458635
vt 0.047327 0.470014
vt 0.801371 0.453119
vt 0.793169 0.447270
vt 0.802105 0.440459
vt 0.703679 0.596843
vt 0.705962 0.609402
vt 0.697677 0.609406
vt 0.676667 0.746872
vt 0.683611 0.756096
vt 0.678251 0.762203
vt 0.338324 0.266056
vt 0.340760 0.276092
vt 0.331095 0.280713
vt 0.369423 0.375243
vt 0.370690 0.386493
vt 0.676667 0.982902
vt 0.670966 0.992239
vt 0.495948 0.931889
vt 0.502500 0.940055
vt 0.691948 0.316161
vt 0.691467 0.302926
vt 0.170714 0.522599
vt 0.107823 0.554488
vt 0.104468 0.548119
vt 0.162873 0.515576
vt 0.000000 0.059415
vt 0.000052 0.050889
vt 0.637130 0.037778
vt 0.645113 0.041398
vt 0.687091 0.364028
vt 0.687109 0.347321
vt 0.079552 0.943066
vt 0.074317 0.955593
vt 0.662505 0.448705
vt 0.689168 0.395836
vt 0.691467 0.409892
vt 0.669980 0.452540
vt 0.331215 0.515576
vt 0.331215 0.593417
vt 0.321155 0.584999
vt 0.321541 0.518322
vt 0.947050 0.107601
vt 0.944393 0.019621
vt 0.953234 0.023759
vt 0.957303 0.103034
vt 0.206481 0.980657
vt 0.211490 0.969004
vt 0.181966 0.771050
vt 0.187657 0.788649
vt 0.951176 0.284691
vt 0.960126 0.273349
vt 0.313060 0.772637
vt 0.286902 0.610226
vt 0.297231 0.617568
vt 0.321155 0.770759
vt 0.081083 0.505435
vt 0.074265 0.508480
vt 0.316682 0.781980
vt 0.883888 0.397286
vt 0.880579 0.386832
vt 0.777669 0.339734
vt 0.787751 0.340063
vt 0.388610 0.219588
vt 0.366979 0.229061
vt 0.366455 0.214878
vt 0.384978 0.206488
vt 0.273912 0.268675
vt 0.272912 0.282421
vt 0.294241 0.366529
vt 0.289945 0.359948
vt 0.357962 0.252660
vt 0.356173 0.239295
vt 0.251797 0.454640
vt 0.259186 0.456912
vt 0.271573 0.020298
vt 0.336043 0.083103
vt 0.336806 0.093681
vt 0.267030 0.026235
vt 0.416805 0.157413
vt 0.411443 0.149257
vt 0.470936 0.098781
vt 0.470938 0.110866
vt 0.187220 0.203989
vt 0.114700 0.195385
vt 0.113438 0.181383
vt 0.187167 0.189744
vt 0.078504 0.024292
vt 0.156786 0.055439
vt 0.159232 0.067864
vt 0.077375 0.035123
vt 0.259022 0.017112
vt 0.269127 0.026850
vt 0.554600 0.847664
vt 0.535855 0.706096
vt 0.546614 0.701359
vt 0.565757 0.849207
vt 0.649115 0.702834
vt 0.655489 0.712873
vt 0.463446 0.626551
vt 0.457717 0.635500
vt 0.873174 0.357782
vt 0.704195 0.057570
vt 0.765561 0.000000
vt 0.796260 0.993058
vt 0.747180 0.939879
vt 0.963121 0.922581
vt 0.948954 0.950203
vt 0.868175 1.000000
vt 0.000000 0.188510
vt 0.266865 0.307015
vt 0.164409 0.515576
vt 0.357962 0.833409
vt 0.365854 0.714840
vt 0.558778 0.514625
vt 0.598549 0.511351
vt 0.653056 0.556848
vt 0.632324 0.847463
vt 1.000000 0.166672
vt 0.834023 0.036890
vt 0.919744 0.003027
vt 0.691467 0.070175
vt 0.426652 0.083686
vt 0.431459 0.072730
vt 0.535536 0.000000
vt 0.611969 0.016049
vt 0.046109 0.980657
vt 0.257670 0.896091
vt 1.000000 0.378938
vt 0.357962 0.113837
vt 0.419089 0.080811
vt 0.263393 0.008857
s 0
f 5/1/1 6/2/1 7/3/1
f 8/4/2 9/5/2 10/6/2
f 11/7/3 12/8/3 13/9/3
f 14/10/4 15/11/4 16/12/4
f 17/13/5 18/14/5 19/15/5
f 20/16/6 21/17/6 22/18/6
f 23/19/7 24/20/7 25/21/7
f 26/22/8 27/23/8 28/24/8
f 29/25/9 30/26/9 31/27/9
f 32/28/10 33/29/10 34/30/10
f 37/31/11 38/32/11 39/33/11
f 40/34/12 41/35/12 42/36/12
f 43/37/13 44/38/13 45/39/13
f 46/40/14 47/41/14 48/42/14
f 49/43/15 50/44/15 51/45/15
f 56/46/16 57/47/16 58/48/16
f 61/49/17 62/50/17 63/51/17
f 64/52/18 65/53/18 66/54/18
f 69/55/19 70/56/19 71/57/19
f 72/58/20 73/59/20 74/60/20
f 77/61/21 78/62/21 79/63/21
f 80/64/22 81/65/22 82/66/22
f 83/67/23 84/68/23 85/69/23
f 88/70/24 89/71/24 90/72/24
f 93/73/25 94/74/25 95/75/25
f 96/76/26 97/77/26 98/78/26
f 103/79/27 104/80/27 105/81/27
f 14/10/28 11/7/28 13/9/28 15/11/28
f 17/13/29 21/17/29 20/16/29 18/14/29
f 12/82/30 19/15/30 18/14/30 13/83/30
f 23/19/31 26/84/31 28/85/31 24/20/31
f 7/3/32 28/24/32 27/23/32 5/1/32
f 15/86/33 25/21/33 24/20/33 16/87/33
f 31/27/34 33/29/34 32/28/34 29/25/34
f 16/12/35 34/30/35 33/29/35 14/10/35
f 6/2/36 32/88/36 34/89/36 7/3/36
f 10/90/37 35/91/37 36/92/37 8/93/37
f 43/37/38 37/94/38 39/95/38 44/38/38
f 40/34/39 45/96/39 44/97/39 41/35/39
f 38/32/40 49/43/40 51/45/40 39/33/40
f 50/98/41 46/40/41 48/42/41 51/99/41
f 47/41/42 42/36/42 41/35/42 48/42/42
f 37/31/43 36/92/43 35/91/43 38/32/43
f 46/40/44 17/13/44 19/15/44 47/41/44
f 56/46/45 52/100/45 53/101/45 57/47/45
f 54/102/46 58/103/46 57/104/46 55/105/46
f 58/48/47 50/44/47 49/43/47 56/46/47
f 21/17/48 54/102/48 55/105/48 22/18/48
f 69/106/49 59/107/49 60/108/49 70/109/49
f 59/110/50 61/111/50 63/112/50 60/113/50
f 62/114/51 64/52/51 66/54/51 63/115/51
f 65/53/52 67/116/52 68/117/52 66/54/52
f 67/116/53 71/57/53 70/56/53 68/117/53
f 52/100/54 65/53/54 64/52/54 53/101/54
f 77/61/55 72/58/55 74/60/55 78/62/55
f 76/118/56 79/63/56 78/62/56 75/119/56
f 73/120/57 83/121/57 85/122/57 74/123/57
f 84/68/58 80/124/58 82/125/58 85/69/58
f 81/65/59 76/118/59 75/119/59 82/66/59
f 9/5/60 84/68/60 83/67/60 10/6/60
f 72/126/61 69/55/61 71/57/61 73/120/61
f 79/63/62 27/23/62 26/22/62 77/61/62
f 86/127/63 88/70/63 90/72/63 87/128/63
f 89/71/64 91/129/64 92/130/64 90/72/64
f 91/129/65 6/2/65 5/1/65 92/130/65
f 80/64/66 86/127/66 87/128/66 81/65/66
f 100/131/67 93/132/67 95/133/67 99/134/67
f 94/74/68 97/77/68 96/76/68 95/75/68
f 11/7/69 94/74/69 93/73/69 12/8/69
f 30/26/70 98/78/70 97/77/70 31/27/70
f 101/135/71 103/79/71 105/81/71 102/136/71
f 104/80/72 106/137/72 107/138/72 105/81/72
f 29/139/73 104/80/73 103/79/73 30/140/73
f 88/141/74 107/138/74 106/137/74 89/142/74
f 110/143/75 96/144/75 98/145/75 111/146/75
f 114/147/76 100/131/76 99/134/76 115/148/76
f 112/149/77 40/34/77 42/36/77 113/150/77
f 118/151/78 116/152/78 117/153/78 119/154/78
f 122/155/79 120/156/79 121/157/79 123/158/79
f 119/154/80 101/135/80 102/136/80 118/151/80
f 8/4/81 117/153/81 116/152/81 9/5/81
f 45/39/82 122/155/82 123/158/82 43/37/82
f 120/156/83 109/159/83 108/160/83 121/157/83
f 124/161/84 126/162/84 127/163/84 125/164/84
f 25/21/85 124/161/85 125/164/85 23/19/85
f 128/165/86 62/50/86 61/49/86 129/166/86
f 22/167/87 127/163/87 126/162/87 20/168/87
f 1/169/88 92/130/88 5/1/88 27/23/88 79/63/88 76/118/88
f 16/170/89 24/171/89 28/24/89 7/3/89 34/89/89
f 106/172/90 104/173/90 29/25/90 32/28/90 6/174/90 91/175/90 89/176/90
f 37/94/91 43/37/91 123/158/91 117/153/91 8/4/91 36/177/91
f 35/91/92 10/90/92 83/121/92 73/120/92 71/57/92 67/116/92
f 80/124/93 84/68/93 9/5/93 2/178/93 107/138/93 88/141/93 86/179/93
f 102/136/94 2/178/94 9/5/94 116/152/94 118/151/94
f 13/180/95 18/181/95 20/168/95 126/162/95 124/161/95 25/21/95 15/86/95
f 93/132/96 100/131/96 19/15/96 12/82/96
f 97/77/97 94/74/97 11/7/97 14/10/97 33/29/97 31/27/97
f 21/17/98 17/13/98 46/40/98 50/98/98 58/103/98 54/102/98
f 47/41/99 19/15/99 100/131/99 114/147/99 113/150/99 42/36/99
f 55/182/100 53/183/100 64/184/100 62/50/100 128/165/100 127/163/100 22/167/100
f 125/164/101 4/185/101 26/84/101 23/19/101
f 26/22/102 59/110/102 69/186/102 72/58/102 77/61/102
f 61/111/103 59/110/103 26/22/103 4/187/103 129/188/103
f 121/157/104 108/160/104 111/146/104 98/145/104 30/140/104 103/79/104 101/135/104 119/154/104
f 49/43/105 38/32/105 35/91/105 67/116/105 65/53/105 52/100/105 56/46/105
f 39/189/106 41/35/106 44/97/106
f 39/189/107 51/99/107 48/42/107 41/35/107
f 45/96/108 40/34/108 112/149/108 3/190/108 109/191/108 120/192/108 122/193/108
f 53/101/109 55/194/109 57/47/109
f 60/195/110 63/115/110 66/54/110 68/117/110 70/56/110
f 74/60/111 75/119/111 78/62/111
f 74/60/112 85/196/112 82/66/112 75/119/112
f 76/118/113 81/65/113 87/128/113 1/169/113
f 1/169/114 87/128/114 90/72/114 92/130/114
f 95/133/115 96/197/115 110/198/115 3/190/115 115/148/115 99/134/115
f 102/136/116 105/81/116 107/138/116 2/178/116
f 108/160/117 109/159/117 3/199/117 110/143/117 111/146/117
f 3/190/118 112/149/118 113/150/118 114/147/118 115/148/118
f 117/153/119 123/158/119 121/157/119 119/154/119
f 125/164/120 127/163/120 128/165/120 129/166/120 4/185/120
