# Blender 4.5.2 LTS
# www.blender.org
o rock_round_0
v -0.295197 -0.744364 0.163107
v -0.234436 -0.636737 -0.367328
v -0.526242 -0.382142 -0.102585
v 0.271183 -0.805850 0.105256
v 0.144326 -0.802448 0.234521
v 0.042927 -0.794022 0.543238
v -0.685689 0.861769 1.027168
v -0.682797 0.859554 1.031821
v -0.681057 0.864426 1.030084
v -0.276825 0.819384 1.278865
v -0.270927 0.820138 1.279876
v -0.274068 0.823688 1.277678
v -0.564304 -0.821151 0.622724
v -0.565538 -0.821512 0.616969
v -0.561091 -0.823751 0.619460
v 0.834505 1.296369 0.616451
v 0.832932 1.295859 0.621898
v 0.837313 1.293679 0.620257
v 0.812580 1.215459 0.753608
v 0.808964 1.218258 0.754784
v 0.808621 1.211334 0.761099
v 0.454158 0.988742 1.102532
v 0.459060 0.985198 1.103711
v 0.782568 0.742867 0.954274
v 0.779017 0.745331 0.958975
v 0.879743 -0.822323 -0.002210
v 0.875881 -0.825200 -0.004983
v 0.878070 -0.822177 -0.008319
v -0.301113 -0.771325 0.854353
v -0.297858 -0.774953 0.852049
v -0.294305 -0.771553 0.857273
v 0.022306 1.334466 0.340933
v 0.016911 1.333654 0.345206
v -0.673182 1.020371 0.739282
v -0.671696 1.024532 0.737873
v -0.803922 0.105227 -0.109276
v -0.800050 0.103685 -0.116955
v -0.803317 0.099215 -0.110239
v 0.278342 -0.758794 -0.685922
v 0.283643 -0.756120 -0.686930
v 0.618885 -0.467115 -0.520500
v 0.623428 -0.467619 -0.516097
v 0.735202 -0.809566 -0.243086
v 0.736651 -0.806464 -0.247828
v 1.044942 0.785196 -0.025611
v 1.044442 0.782767 -0.031571
v 1.043756 0.788934 -0.029637
v 0.938010 1.205887 0.335613
v 0.940556 1.202150 0.337203
v 0.940475 1.201668 0.329455
v 0.488295 1.101706 -0.588866
v 0.487662 1.105917 -0.585816
v 0.493780 1.102489 -0.584404
v 0.813123 0.737236 -0.478727
v 0.815759 0.741285 -0.475265
v 0.817453 0.735317 -0.474821
v 0.426636 -0.771995 0.838213
v 0.425677 -0.775168 0.834334
v 0.431871 -0.772904 0.833106
v 0.875851 -0.825476 0.071594
v 0.879201 -0.822312 0.070252
v 0.876787 -0.822348 0.079276
v 0.845468 -0.320950 0.709115
v 0.846000 -0.326925 0.705458
v 0.848018 -0.320517 0.704487
v 0.401797 -0.773286 0.847487
v 0.403452 -0.769393 0.850392
v 0.389719 -0.769393 0.855382
v 0.190324 -0.661011 0.970558
v 0.187325 -0.666475 0.969492
v 0.139893 -0.759960 0.904866
v 0.137662 -0.762927 0.899739
v -0.105569 -0.242984 1.147762
v -0.111122 -0.242409 1.147325
v -0.143229 -0.470957 1.062501
v -0.140617 -0.479169 1.059889
v -0.001461 -0.468071 1.079899
v -0.002181 -0.458691 1.083145
v -0.295417 -0.597858 -0.386570
v -0.292430 -0.599762 -0.385628
v -0.212271 -0.794611 0.188480
v -0.219459 -0.792651 0.187007
v -0.215426 -0.794308 0.184844
v -0.505398 -0.810060 0.450011
v -0.499729 -0.810593 0.442486
v -0.500774 -0.813008 0.451470
v -0.397349 -0.619707 -0.092658
v -0.399195 -0.617454 -0.097280
v -0.491754 -0.730291 0.299580
v -0.486471 -0.733133 0.296403
v -0.121959 -0.773993 -0.085709
v -0.116890 -0.776542 -0.079461
v -0.121175 -0.776511 -0.077887
v -0.082469 -0.745618 -0.540278
v -0.088227 -0.743848 -0.537233
v -0.900086 0.052255 0.129542
v -0.899787 0.046601 0.129134
v -0.901328 0.048203 0.134885
v -0.789364 -0.501515 0.617023
v -0.787666 -0.501124 0.621861
v -0.791681 -0.495146 0.618676
v -0.892917 0.399135 0.821390
v -0.894238 0.391272 0.819130
v -0.891516 0.396465 0.824840
v -0.358307 1.239898 -0.377689
v -0.362353 1.238016 -0.373531
v -0.361356 1.241832 -0.373156
v -0.280907 1.272881 -0.400716
v -0.283260 1.275111 -0.396390
v -0.276954 1.276098 -0.398380
v -0.638598 0.358236 -0.334693
v -0.637830 0.351909 -0.338140
v -0.613213 -0.028828 -0.365214
v -0.613494 -0.021943 -0.367173
v 0.385935 1.119755 -0.621890
v 0.379777 1.120942 -0.621862
v 0.383274 1.123749 -0.619375
v 0.315411 1.138592 -0.596748
v 0.313446 1.135059 -0.599966
v -0.198581 1.266659 -0.424144
v -0.200206 1.263059 -0.427479
v -0.057164 1.240820 -0.471101
v -0.059070 1.237272 -0.474330
v -0.191768 -0.673495 -0.536868
v -0.183897 -0.677324 -0.542539
v -0.184481 -0.680646 -0.539092
v -0.089018 -0.743624 -0.573364
v -0.094969 -0.741606 -0.571344
v -0.091786 -0.740054 -0.575727
v 0.274810 -0.754593 -0.692076
v 0.268681 -0.754144 -0.692659
v 0.270953 -0.757973 -0.689974
v 0.268687 -0.754417 -0.692498
v 0.274657 -0.755120 -0.691944
v 0.370743 0.988371 -0.626475
v 0.364411 0.987994 -0.624460
v 0.274593 -0.729683 -0.690593
v 0.268480 -0.728909 -0.691098
v 0.380523 0.834647 -0.665798
v 0.387028 0.834701 -0.664420
v 0.215868 -0.751972 -0.671913
v 0.215078 -0.748470 -0.675286
v 0.078462 -0.752430 -0.631194
v 0.077828 -0.745841 -0.630617
v 0.093295 -0.748180 -0.635725
v 0.092726 -0.741571 -0.635167
v -0.553377 -0.127277 -0.394716
v -0.550903 -0.132388 -0.390912
v -0.194843 -0.669180 -0.535682
v -0.191599 -0.666209 -0.539529
v -0.265965 -0.539502 -0.508367
v -0.269107 -0.542671 -0.504621
v -0.289318 -0.473238 -0.498239
v -0.280282 -0.472521 -0.498796
v -0.289112 -0.483920 -0.497723
v -0.294530 -0.482688 -0.493505
v -0.360953 1.206425 -0.392026
v -0.355870 1.210383 -0.393437
v -0.602376 0.444593 -0.345297
v -0.590218 0.482787 -0.343039
v -0.410303 0.995367 -0.397910
v -0.412410 1.007106 -0.395804
v 0.309526 0.422900 -0.725827
v 0.304091 0.420263 -0.727499
v -0.476600 -0.289449 -0.513220
v -0.474739 -0.285404 -0.516766
vn -0.6462 0.4505 0.6161
vn -0.2032 0.3791 0.9028
vn -0.5150 -0.8415 0.1632
vn 0.4999 0.8370 0.2228
vn 0.6010 0.5222 0.6052
vn 0.6740 -0.7107 -0.2015
vn -0.3046 -0.6902 0.6564
vn -0.8942 -0.0184 -0.4472
vn 0.9774 0.1541 -0.1448
vn 0.8340 0.5500 -0.0429
vn 0.4719 0.5627 -0.6787
vn 0.6975 0.1457 -0.7016
vn 0.3820 -0.7593 0.5268
vn 0.7131 -0.6754 0.1881
vn 0.8655 -0.2032 0.4578
vn 0.2607 -0.6461 0.7173
vn -0.2922 -0.9402 0.1752
vn -0.4516 -0.8470 -0.2803
vn -0.1148 -0.9489 -0.2939
vn -0.9677 -0.0330 -0.2500
vn -0.8553 -0.3974 0.3324
vn -0.9151 0.0383 0.4014
vn -0.7481 0.2556 -0.6123
vn -0.2978 0.7728 -0.5605
vn 0.1082 0.5803 -0.8072
vn -0.6540 -0.4862 -0.5795
vn -0.4303 -0.7060 -0.5625
vn 0.0081 -0.5753 -0.8179
vn 0.8277 0.1740 0.5335
vn 0.2883 0.6372 0.7147
vn -0.4586 0.6632 -0.5915
vn -0.9408 0.2655 -0.2108
vn -0.1590 0.9872 -0.0136
vn 0.0004 0.9908 0.1350
vn -0.7419 0.5991 0.3012
vn -0.4283 0.4581 0.7789
vn 0.0906 0.5099 0.8554
vn 0.5787 0.6533 0.4882
vn -0.8701 0.1504 -0.4693
vn -0.8300 -0.1840 -0.5265
vn 0.3357 -0.8320 -0.4417
vn 0.5778 0.2838 -0.7652
vn 0.5153 0.7878 -0.3374
vn 0.9632 0.2670 -0.0298
vn 0.8574 0.2250 -0.4629
vn 0.9821 -0.1037 -0.1572
vn 0.5174 -0.7778 -0.3567
vn 0.6691 -0.0824 -0.7386
vn 0.7430 0.6669 0.0571
vn 0.3362 0.6174 -0.7112
vn -0.0818 0.7047 -0.7048
vn -0.0550 0.6885 -0.7231
vn -0.1063 0.7005 -0.7057
vn -0.1459 0.7004 -0.6986
vn 0.6145 -0.3714 0.6960
vn 0.3956 -0.8712 0.2908
vn 0.9340 -0.2565 0.2488
vn 0.8262 -0.0797 0.5577
vn 0.6419 -0.7668 0.0011
vn 0.0666 -0.8612 0.5040
vn 0.3202 -0.3475 0.8813
vn 0.2230 -0.3033 0.9264
vn -0.3743 -0.3872 0.8426
vn -0.0361 -0.8421 0.5381
vn 0.2763 -0.7168 0.6402
vn -0.1220 -0.1409 0.9825
vn -0.4987 -0.7955 -0.3443
vn -0.6116 -0.6746 -0.4132
vn -0.1944 -0.9403 -0.2792
vn -0.3463 -0.9340 -0.0884
vn -0.3074 -0.9516 0.0008
vn -0.6647 -0.7428 -0.0803
vn -0.5837 -0.5330 -0.6126
vn -0.0563 0.2441 -0.9681
vn -0.1584 0.0451 -0.9863
vn 0.2561 -0.7476 -0.6128
vn 0.0544 -0.3517 -0.9345
vn 0.0944 0.0611 -0.9937
vn 0.2245 0.1026 -0.9691
vn -0.3129 -0.7927 0.5232
vn -0.4156 -0.8854 -0.2081
vn -0.3160 -0.2659 -0.9107
vn -0.3058 0.0539 -0.9506
vn -0.2960 -0.2929 -0.9092
vn -0.2920 -0.6845 -0.6680
vn -0.9784 0.1886 -0.0845
vn -0.9368 -0.3183 -0.1454
vn -0.7867 -0.2213 0.5763
vn -0.7920 -0.5531 0.2585
vn -0.8373 0.1406 0.5284
vn -0.6586 -0.2089 -0.7229
vn -0.6408 -0.2503 -0.7258
vn -0.9251 -0.0272 -0.3787
vn -0.8308 -0.3843 -0.4027
vn -0.2160 -0.3047 -0.9276
vn -0.3149 -0.0518 -0.9477
vn -0.6579 -0.1371 -0.7405
vn -0.8057 0.2734 -0.5254
vn -0.6397 0.3448 -0.6870
vn -0.3420 0.1060 -0.9337
vn -0.7750 0.2081 -0.5967
vn 0.1908 -0.0364 -0.9809
vn -0.9331 -0.2610 -0.2473
vn -0.9269 0.3214 -0.1936
vn -0.1219 0.8817 0.4557
vn -0.5247 -0.2225 0.8217
vn 0.3530 -0.1308 0.9264
vn 0.0310 -0.9988 0.0390
vn -0.8036 -0.4790 -0.3531
vn 0.1544 0.9733 -0.1701
vn 0.9787 -0.0299 0.2032
vn 0.5669 0.2912 0.7706
vn 0.8711 -0.1095 -0.4788
vn -0.0504 -0.9971 -0.0569
vn -0.0774 -0.5401 0.8381
vn -0.3713 0.9253 0.0773
vn -0.8031 -0.0060 -0.5958
vn -0.7957 -0.4761 -0.3744
vn 0.4461 -0.0101 -0.8949
vn 0.6356 -0.3374 -0.6944
vn 0.7308 0.5375 -0.4207
vn 0.7135 -0.5320 0.4560
vn -0.0132 -0.9986 0.0507
vn 0.1321 -0.6081 0.7828
vn -0.1082 -0.3325 0.9369
vn -0.4717 -0.8521 -0.2269
vn -0.5488 -0.8342 0.0537
vn -0.3689 -0.8069 -0.4613
vn -0.0326 -0.9979 -0.0554
vn -0.2811 -0.9021 -0.3274
vn -0.6604 -0.7444 -0.0990
vn -0.9884 -0.1316 0.0762
vn -0.3170 0.1285 -0.9397
vn -0.5830 0.0736 -0.8091
vn -0.2723 -0.0555 -0.9606
vn -0.9360 -0.3017 -0.1813
vn -0.6900 -0.6764 -0.2575
vt 0.056890 0.246779
vt 0.055814 0.246416
vt 0.056534 0.245497
vt 0.000237 0.180241
vt 0.000000 0.179247
vt 0.000786 0.179240
vt 0.692070 0.715412
vt 0.692913 0.714642
vt 0.692966 0.715895
vt 0.570257 0.592887
vt 0.571270 0.592412
vt 0.571189 0.593480
vt 0.599616 0.594913
vt 0.599600 0.593873
vt 0.601128 0.594601
vt 0.946680 0.889016
vt 0.946763 0.888411
vt 0.947535 0.888079
vt 0.593609 0.405787
vt 0.592969 0.406764
vt 0.592431 0.405661
vt 0.183568 0.472933
vt 0.184655 0.473237
vt 0.183151 0.473926
vt 0.479683 0.749652
vt 0.478659 0.750381
vt 0.478703 0.749113
vt 0.524399 0.640314
vt 0.524955 0.641193
vt 0.523509 0.641762
vt 0.250031 0.548147
vt 0.249770 0.547099
vt 0.250978 0.547669
vt 0.315830 0.617437
vt 0.316200 0.616337
vt 0.316603 0.617606
vt 0.453334 0.412887
vt 0.453425 0.413857
vt 0.452134 0.413520
vt 0.336024 0.487633
vt 0.335253 0.487091
vt 0.336098 0.486375
vt 0.357372 0.330298
vt 0.357251 0.331858
vt 0.356678 0.330587
vt 0.458519 0.412243
vt 0.458236 0.411201
vt 0.461081 0.410704
vt 0.801475 0.725014
vt 0.800970 0.723445
vt 0.801760 0.724074
vt 0.727192 0.705731
vt 0.729049 0.705939
vt 0.727440 0.706985
vt 0.856887 0.708773
vt 0.856372 0.710560
vt 0.855664 0.710012
vt 0.139651 0.477056
vt 0.139180 0.477990
vt 0.138377 0.477504
vt 0.668081 0.641256
vt 0.667440 0.642003
vt 0.667530 0.640324
vt 0.053252 0.367067
vt 0.052928 0.368724
vt 0.052374 0.367069
vt 0.077132 0.526787
vt 0.076260 0.527118
vt 0.076392 0.526234
vt 0.092394 0.518777
vt 0.091792 0.518152
vt 0.093062 0.517881
vt 0.230611 0.547715
vt 0.229390 0.547582
vt 0.229970 0.546781
vt 0.925124 0.638310
vt 0.926913 0.639451
vt 0.926290 0.640094
vt 0.942265 0.659449
vt 0.941298 0.658446
vt 0.942358 0.658336
vt 0.999210 0.708444
vt 0.999382 0.707399
vt 0.999910 0.708526
vt 0.660754 0.657335
vt 0.660084 0.658536
vt 0.666906 0.562765
vt 0.667440 0.563956
vt 0.121757 0.239122
vt 0.326435 0.243238
vt 0.326161 0.244037
vt 0.121154 0.239912
vt 0.203561 0.123381
vt 0.332092 0.228030
vt 0.331800 0.228896
vt 0.202872 0.123926
vt 0.493569 0.494417
vt 0.494268 0.493553
vt 0.569893 0.034262
vt 0.418702 0.018619
vt 0.419513 0.017919
vt 0.570323 0.033654
vt 0.242529 0.425136
vt 0.242506 0.426343
vt 0.787427 0.493553
vt 0.849520 0.512375
vt 0.849255 0.513409
vt 0.785981 0.494226
vt 1.000000 0.710656
vt 0.973164 0.837651
vt 0.972232 0.838262
vt 0.999296 0.710187
vt 0.342842 0.657022
vt 0.342236 0.655702
vt 0.390710 0.756276
vt 0.390285 0.755059
vt 0.557528 1.000000
vt 0.558739 0.999859
vt 0.295818 0.890484
vt 0.296600 0.890315
vt 0.215660 0.544955
vt 0.215912 0.543995
vt 0.138160 0.525004
vt 0.138401 0.524042
vt 0.109181 0.519374
vt 0.108999 0.520347
vt 0.572450 0.995132
vt 0.666997 0.864671
vt 0.667440 0.865428
vt 0.574094 0.994233
vt 0.356624 0.083448
vt 0.355800 0.084367
vt 0.332092 0.492755
vt 0.332781 0.493553
vt 0.510882 0.402878
vt 0.511160 0.403892
vt 0.501748 0.377096
vt 0.502402 0.378318
vt 0.538866 0.323761
vt 0.538803 0.326015
vt 0.564904 0.328849
vt 0.565330 0.326878
vt 0.570999 0.034455
vt 0.557597 0.271889
vt 0.556563 0.272021
vt 0.828767 0.644908
vt 0.754618 0.683968
vt 0.753522 0.683105
vt 0.829343 0.643860
vt 0.936262 0.663409
vt 0.937380 0.664243
vt 0.888696 0.628377
vt 0.888856 0.629187
vt 0.229602 0.577375
vt 0.235916 0.612698
vt 0.234680 0.612907
vt 0.228317 0.577510
vt 0.236979 0.968787
vt 0.236953 0.968902
vt 0.235790 0.968897
vt 0.235789 0.968843
vt 0.235356 0.963185
vt 0.236549 0.963204
vt 0.227133 0.709039
vt 0.228116 0.708268
vt 0.680764 0.778458
vt 0.680020 0.777750
vt 0.162106 0.968545
vt 0.196762 0.968493
vt 0.196993 0.969965
vt 0.162636 0.969179
vt 0.199732 0.967417
vt 0.199950 0.968894
vt 0.224899 0.968625
vt 0.224782 0.968006
vt 0.990439 0.700537
vt 0.990907 0.699654
vt 0.735964 0.509411
vt 0.734828 0.509579
vt 0.000000 0.517881
vt 0.001205 0.517659
vt 0.139932 0.953356
vt 0.122839 0.925586
vt 0.123505 0.924972
vt 0.140624 0.952789
vt 0.140624 0.954297
vt 0.142363 0.955215
vt 0.860927 0.531387
vt 0.860569 0.532778
vt 0.079334 0.873429
vt 0.119520 0.910021
vt 0.117749 0.910351
vt 0.078936 0.874218
vt 0.117926 0.912694
vt 0.116741 0.912360
vt 0.033590 0.726556
vt 0.041516 0.698242
vt 0.039733 0.707069
vt 0.033917 0.728087
vt 0.078426 0.533940
vt 0.077452 0.534868
vt 0.070914 0.582986
vt 0.070284 0.580339
vt 0.890443 0.549509
vt 0.889674 0.550033
vt 0.326322 0.250487
vt 0.309286 0.290949
vt 0.254648 0.398461
vt 0.029931 0.066676
vt 0.103398 0.006351
vt 0.133063 0.000000
vt 0.671049 0.362652
vt 0.635450 0.432410
vt 0.637552 0.042019
vt 0.679300 0.155055
vt 0.830644 0.789833
vt 0.768119 0.804576
vt 0.717714 0.854275
vt 0.924584 0.637435
vt 0.815866 0.595553
vt 0.906195 0.604200
vt 0.911010 0.614047
vt 0.332092 0.640722
vt 0.333757 0.627577
vt 0.342145 0.551780
vt 0.345828 0.525267
vt 0.348061 0.511422
vt 0.332092 0.000000
vt 0.507445 0.993603
vt 0.436773 0.937779
vt 0.933864 0.896498
vt 0.865553 0.797630
vt 0.969372 0.682109
vt 0.971647 0.683608
vt 0.044666 0.811706
vt 0.000000 0.777375
vt 0.238595 0.968722
vt 0.316603 0.951840
vt 0.758582 0.896498
vt 0.753887 0.893713
vt 0.796909 0.702902
vt 0.891965 0.644917
vt 0.058605 0.834936
vt 0.907482 0.603493
s 0
f 7/1/1 8/2/1 9/3/1
f 10/4/2 11/5/2 12/6/2
f 13/7/3 14/8/3 15/9/3
f 16/10/4 17/11/4 18/12/4
f 19/13/5 20/14/5 21/15/5
f 26/16/6 27/17/6 28/18/6
f 29/19/7 30/20/7 31/21/7
f 36/22/8 37/23/8 38/24/8
f 45/25/9 46/26/9 47/27/9
f 48/28/10 49/29/10 50/30/10
f 51/31/11 52/32/11 53/33/11
f 54/34/12 55/35/12 56/36/12
f 57/37/13 58/38/13 59/39/13
f 60/40/14 61/41/14 62/42/14
f 63/43/15 64/44/15 65/45/15
f 66/46/16 67/47/16 68/48/16
f 81/49/17 82/50/17 83/51/17
f 84/52/18 85/53/18 86/54/18
f 91/55/19 92/56/19 93/57/19
f 96/58/20 97/59/20 98/60/20
f 99/61/21 100/62/21 101/63/21
f 102/64/22 103/65/22 104/66/22
f 105/67/23 106/68/23 107/69/23
f 108/70/24 109/71/24 110/72/24
f 115/73/25 116/74/25 117/75/25
f 124/76/26 125/77/26 126/78/26
f 127/79/27 128/80/27 129/81/27
f 132/82/28 133/83/28 134/84/28
f 21/15/29 25/85/29 24/86/29 19/13/29
f 20/14/30 22/87/30 23/88/30 21/15/30
f 107/69/31 109/71/31 108/70/31 105/67/31
f 35/89/32 107/90/32 106/91/32 34/92/32
f 32/93/33 110/94/33 109/95/33 33/96/33
f 16/10/34 32/97/34 33/98/34 17/11/34
f 9/3/35 35/89/35 34/92/35 7/1/35
f 8/2/36 10/4/36 12/6/36 9/3/36
f 11/99/37 23/100/37 22/101/37 12/102/37
f 17/11/38 20/14/38 19/13/38 18/12/38
f 36/22/39 111/103/39 112/104/39 37/23/39
f 37/105/40 114/106/40 113/107/40 38/108/40
f 40/109/41 44/110/41 43/111/41 39/112/41
f 53/33/42 55/35/42 54/34/42 51/31/42
f 50/30/43 53/113/43 52/114/43 48/28/43
f 47/27/44 50/30/44 49/29/44 45/25/44
f 46/26/45 56/115/45 55/116/45 47/27/45
f 28/117/46 46/26/46 45/25/46 26/118/46
f 27/17/47 43/111/47 44/110/47 28/18/47
f 41/119/48 54/34/48 56/36/48 42/120/48
f 18/12/49 49/29/49 48/28/49 16/10/49
f 51/31/50 115/73/50 117/75/50 52/32/50
f 116/74/51 119/121/51 118/122/51 117/75/51
f 119/121/52 123/123/52 122/124/52 118/122/52
f 120/125/53 122/124/53 123/123/53 121/126/53
f 110/72/54 120/125/54 121/126/54 108/70/54
f 59/39/55 64/44/55 63/43/55 57/37/55
f 58/38/56 60/40/56 62/42/56 59/39/56
f 61/127/57 65/128/57 64/129/57 62/130/57
f 25/131/58 63/43/58 65/45/58 24/132/58
f 26/133/59 61/41/59 60/40/59 27/134/59
f 68/48/60 71/135/60 72/136/60 66/46/60
f 67/47/61 69/137/61 70/138/61 68/48/61
f 69/137/62 78/139/62 77/140/62 70/138/62
f 31/21/63 76/141/63 75/142/63 29/19/63
f 30/20/64 72/136/64 71/135/64 31/21/64
f 57/37/65 67/47/65 66/46/65 58/38/65
f 10/143/66 74/144/66 73/145/66 11/99/66
f 87/146/67 90/147/67 89/148/67 88/149/67
f 84/52/68 89/148/68 90/147/68 85/53/68
f 81/49/69 86/54/69 85/53/69 82/50/69
f 91/55/70 95/150/70 94/151/70 92/56/70
f 95/150/71 128/80/71 127/79/71 94/151/71
f 79/152/72 124/76/72 126/78/72 80/153/72
f 125/77/73 129/81/73 128/80/73 126/78/73
f 135/154/74 140/155/74 139/156/74 136/157/74
f 115/73/75 135/154/75 136/157/75 116/74/75
f 39/112/76 132/82/76 134/84/76 40/109/76
f 130/158/77 134/159/77 133/160/77 131/161/77
f 131/161/78 138/162/78 137/163/78 130/158/78
f 164/164/79 139/156/79 140/155/79 163/165/79
f 15/9/80 30/166/80 29/167/80 13/7/80
f 14/8/81 84/52/81 86/54/81 15/9/81
f 129/168/82 144/169/82 143/170/82 127/171/82
f 144/169/83 146/172/83 145/173/83 143/170/83
f 141/174/84 145/173/84 146/172/84 142/175/84
f 132/82/85 141/176/85 142/177/85 133/83/85
f 98/60/86 103/65/86 102/64/86 96/58/86
f 97/178/87 99/61/87 101/63/87 98/179/87
f 100/180/88 104/66/88 103/65/88 101/181/88
f 13/7/89 100/62/89 99/61/89 14/8/89
f 7/1/90 102/64/90 104/66/90 8/2/90
f 149/182/91 152/183/91 151/184/91 150/185/91
f 124/186/92 149/182/92 150/185/92 125/187/92
f 38/24/93 97/59/93 96/58/93 36/22/93
f 114/106/94 147/188/94 148/189/94 113/107/94
f 166/190/95 154/191/95 153/192/95 165/193/95
f 154/191/96 155/194/96 156/195/96 153/192/96
f 152/183/97 156/195/97 155/194/97 151/184/97
f 111/196/98 160/197/98 159/198/98 112/199/98
f 105/67/99 158/200/99 157/201/99 106/68/99
f 158/200/100 161/202/100 162/203/100 157/201/100
f 160/197/101 162/203/101 161/202/101 159/198/101
f 138/162/102 164/164/102 163/165/102 137/163/102
f 147/188/103 166/204/103 165/205/103 148/189/103
f 111/103/104 36/22/104 96/58/104 102/64/104 7/1/104 34/92/104 106/91/104 157/206/104 162/207/104 160/208/104
f 33/96/105 35/89/105 9/3/105 12/6/105 22/209/105 20/210/105 17/211/105
f 100/212/106 13/213/106 29/19/106 75/142/106 74/144/106 10/143/106 8/214/106 104/215/106
f 69/137/107 67/47/107 57/37/107 63/43/107 25/131/107 23/100/107 11/99/107 73/145/107 78/139/107
f 5/216/108 6/217/108 72/218/108 30/166/108 15/9/108 86/54/108 81/49/108
f 149/219/109 124/76/109 79/152/109 88/149/109 89/148/109 84/52/109 14/8/109 99/61/109 3/220/109 156/221/109 152/222/109
f 32/97/110 16/10/110 48/28/110 52/114/110 117/223/110 118/224/110 122/225/110 120/226/110 110/227/110
f 49/29/111 18/12/111 19/13/111 24/86/111 65/128/111 61/127/111 26/118/111 45/25/111
f 21/228/112 23/100/112 25/131/112
f 46/26/113 28/117/113 44/229/113 42/230/113 56/115/113
f 39/112/114 43/111/114 27/17/114 60/231/114 4/232/114 92/56/114 94/151/114 127/79/114 143/233/114 145/234/114 141/176/114 132/82/114
f 70/138/115 77/140/115 76/141/115 31/21/115 71/135/115
f 107/90/116 35/89/116 33/96/116 109/95/116
f 112/199/117 114/235/117 37/236/117
f 148/189/118 3/220/118 99/61/118 97/178/118 38/108/118 113/107/118
f 135/154/119 115/73/119 51/31/119 54/34/119 41/119/119 40/237/119 134/159/119 130/158/119 137/163/119 163/165/119 140/155/119
f 41/119/120 42/120/120 44/238/120 40/237/120
f 53/113/121 50/30/121 47/27/121 55/116/121
f 59/39/122 62/42/122 64/44/122
f 4/232/123 60/231/123 58/239/123 66/240/123 72/218/123 6/217/123 5/216/123
f 68/48/124 70/138/124 71/135/124
f 73/145/125 74/144/125 75/142/125 76/141/125 77/140/125 78/139/125
f 1/241/126 87/146/126 88/149/126 79/152/126 80/153/126 2/242/126 91/55/126 93/57/126 83/51/126 82/50/126
f 95/150/127 2/242/127 80/153/127 126/78/127 128/80/127
f 90/147/128 1/241/128 82/50/128 85/53/128
f 93/57/129 92/56/129 4/232/129 5/216/129 81/49/129 83/51/129
f 87/146/130 1/241/130 90/147/130
f 2/242/131 95/150/131 91/55/131
f 98/60/132 101/181/132 103/65/132
f 158/200/133 105/67/133 108/70/133 121/126/133 123/123/133 119/121/133 116/74/133 136/157/133 139/156/133 164/164/133 166/190/133 161/202/133
f 161/202/134 166/190/134 147/243/134 114/235/134 112/199/134 159/198/134
f 166/190/135 164/164/135 138/162/135 131/161/135 133/160/135 142/175/135 146/172/135 144/169/135 129/168/135 125/187/135 150/185/135 151/184/135 155/194/135 154/191/135
f 165/205/136 3/220/136 148/189/136
f 156/221/137 3/220/137 165/205/137 153/244/137
